<?xml version="1.0" encoding="UTF-8"?><svg id="Layer_2" xmlns="http://www.w3.org/2000/svg" viewBox="0 0 181.53 64.49"><defs><style>.cls-1{fill:#00a5ff;stroke-width:0px;}</style></defs><g id="Layer_1-2"><path class="cls-1" d="m181.53,26.06C157.2,9.82,125.48,0,90.76,0S24.33,9.82,0,26.06c24.19-8.04,52.47-13.03,90.76-13.03s66.57,4.99,90.76,13.03"/><path class="cls-1" d="m76.85,34.5c-1.78,0-2.7,1.44-2.93,3.21-.26,1.95-1.29,8.73-1.52,10.45-.14,1.03-.21,2.11-1.21,2.55-1,.44-2.22-.23-3.25-1.12-1.04-.88-16.4-13.96-16.4-13.96-.88-.77-1.99-1.13-3.05-1.13-2.32,0-4.55,1.44-4.55,4.96v21.82c0,1.7,1.2,2.79,2.63,2.79,1.58,0,2.6-1.05,2.83-2.58,0,0,1.69-10.4,1.9-11.56.24-1.35.45-2.41,1.75-2.81,1.18-.36,2.29.32,3.95,1.77,1.63,1.43,15.47,13.92,15.47,13.92,1.06.89,1.83,1.26,3.33,1.26,1.36,0,3.83-.56,3.83-4.71v-21.73c0-2.02-1.25-3.11-2.77-3.11"/><path class="cls-1" d="m175.83,57.75c-12.06,2.6-25.85-.18-25.85-8.7,0-6.45,5.98-9.07,10.69-9.45,4.94-.39,8.8.64,10.79,2.71,1.24,1.29.9,3.05-1.54,3.19-2.25.14-6.46.27-9.96.4-1.99.08-3.05,1.14-3.05,2.57,0,1.13.85,2.43,3.14,2.45,3.28.02,11.62.07,15.76.08,2.73,0,4.08-1.52,4.08-4.66,0-4.98-4.51-12.53-17.71-12.53-11.96,0-20.61,5.96-20.61,15.7,0,13.81,20.33,18.02,35.22,12.89,1.41-.48,2.69-1.49,2.28-3.08-.36-1.4-1.51-1.93-3.22-1.56"/><path class="cls-1" d="m35.95,57.75c-12.06,2.6-25.85-.18-25.85-8.7,0-6.45,5.98-9.07,10.69-9.45,4.94-.39,8.8.64,10.79,2.71,1.24,1.29.9,3.05-1.54,3.19-2.25.14-6.46.27-9.96.4-1.99.08-3.05,1.14-3.05,2.57,0,1.13.85,2.43,3.15,2.45,3.28.02,11.62.07,15.75.08,2.73,0,4.08-1.52,4.08-4.66,0-4.98-4.51-12.53-17.71-12.53-11.96,0-20.61,5.96-20.61,15.7,0,13.81,20.33,18.02,35.22,12.89,1.41-.48,2.69-1.49,2.28-3.08-.37-1.4-1.51-1.93-3.22-1.56"/><path class="cls-1" d="m129.33,44.47c.26,7.53.97,13.78,1.17,15.97.26,2.83,1.72,3.63,3.19,3.63s2.89-.73,3.15-3.61c.22-2.42.93-9.86,1.28-17.23.02-.38-.25-.55-.55-.5l-7.85,1.27c-.23.06-.4.25-.39.47"/><path class="cls-1" d="m133.71,33.79c-3.6,0-4.65,2.82-4.61,4.55,0,.32.04,1.21.09,2.31.01.25.24.49.54.45l8.19-1.33c.26-.05.39-.25.4-.45.02-.38.03-.78.03-.96.04-1.67-1.03-4.57-4.65-4.57"/><path class="cls-1" d="m121.67,45.8c-2.73,0-11.16.06-16.55.08-2.62,0-3.27,1.41-3.27,2.57,0,1.01.7,2.32,3.14,2.45,3.72.19,8.44.41,10.63.53,2.94.15,2.98,1.66,1.99,2.96-2,2.6-6.86,4.3-11.89,4.3-6.59,0-13.83-3.75-13.83-9.69,0-5.57,6.2-11.71,24.63-9.12,1.62.23,3.21-.06,3.61-1.56.42-1.59-.61-2.62-2.71-3.17-4.18-1.1-7.98-1.36-11.62-1.36-12.4,0-22.35,5.92-22.35,15.49,0,10.22,9.91,15.21,22.26,15.21,13.79,0,20.51-7.51,20.51-14.07.02-3.35-1.69-4.62-4.55-4.62"/></g></svg>