<?xml version="1.0" encoding="UTF-8"?><svg id="Layer_2" xmlns="http://www.w3.org/2000/svg" xmlns:xlink="http://www.w3.org/1999/xlink" viewBox="0 0 1419.49 875.12"><defs><style>.cls-1{fill:#4e5c89;isolation:isolate;opacity:.45;}.cls-1,.cls-2,.cls-3,.cls-4,.cls-5,.cls-6,.cls-7,.cls-8{stroke-width:0px;}.cls-9{clip-path:url(#clippath);}.cls-2{fill:none;}.cls-10{opacity:.3;}.cls-4{fill:#100708;}.cls-5{fill:#acd400;}.cls-6{fill:#00a5ff;}.cls-7{fill:#00a7ff;}.cls-8{fill:#fff;}</style><clipPath id="clippath"><rect class="cls-2" width="1419.49" height="875.12"/></clipPath></defs><g id="Layer_1-2"><g class="cls-9"><g id="Groupe_381"><rect id="Rectangle_96" class="cls-6" x="4" y="4" width="1427.15" height="867.12"/><path id="Tracé_18105" class="cls-8" d="m1435.15,875.12H0V0h1435.15v875.12ZM8,867.12h1419.15V8H8v859.12Z"/></g></g><path id="Tracé_18336" class="cls-1" d="m1108.21,14.88l197.81,671.7h-615.7L894.52,9.21l213.69,5.67Z"/><ellipse id="Ellipse_86" class="cls-8" cx="1001.36" cy="686.58" rx="304.66" ry="51.63"/><path id="Tracé_18337" class="cls-8" d="m1306.99,687.43c-.07,1.63-.49,3.23-1.22,4.69-.16.36-.34.7-.55,1.04-.2.33-.38.68-.6.99-.42.62-.88,1.22-1.36,1.8-1.84,2.15-3.95,4.06-6.27,5.68-2.49,1.7-5.16,3.11-7.97,4.21-2.68,1.1-5.28,2.05-7.68,3.12-5.47,2.47-10.06,5.66-15.12,7.43-5.53,1.93-10.82,3.65-16.16,5.18-5.35,1.53-10.82,2.73-16.48,4.05-5.21,1.22-10.99,1.18-16.86,2.33-5.14,1-10.45,2.79-16.43,3.76-5.17.84-10.69,1.76-16.68,2.59-5.22.71-10.72,1.87-16.69,2.56-5.26.6-10.95.27-16.88.84-5.3.52-10.82,1.75-16.73,2.24-5.45.45-10.98,1.07-16.63,1.47-5.46.4-11.01.86-16.65,1.21-5.48.33-11.1-.54-16.73-.26-5.48.27-11.01.98-16.64,1.19-5.49.22-11.03.82-16.64.99l-16.67.42c-5.51.11-11.07-.34-16.68-.28-5.51.05-11.07-.33-16.67-.33-5.51,0-11.07,1.14-16.67,1.1-5.52-.05-11.08-.6-16.67-.7-5.53-.09-11.08-.46-16.67-.61-5.53-.15-11.07-.74-16.66-.94-5.53-.21-11.1-.09-16.68-.35-5.53-.27-11.12.07-16.7-.26-5.54-.32-11.1-.59-16.67-.98-5.54-.39-10.99-2.13-16.56-2.59-5.53-.45-11.17.06-16.73-.46-5.54-.54-10.99-2.03-16.53-2.65-5.52-.61-11.21,0-16.77-.7-5.53-.7-11.09-1.31-16.63-2.12s-10.84-3-16.36-3.94c-5.51-.94-11.03-1.89-16.53-2.99-5.5-1.1-11.11-1.75-16.6-3.07-5.49-1.32-10.99-2.68-16.45-4.31s-10.73-4.02-16.11-6.17c-5.38-2.2-11.23-3.7-16.62-7.35-2.9-2-5.39-4.52-7.36-7.44-.28-.4-.55-.82-.78-1.25-.25-.44-.5-.87-.74-1.32-.48-.97-.88-1.97-1.21-3-.35-1.09-.6-2.2-.76-3.33-.13-1.17-.15-2.35-.05-3.53.09-1.16.28-2.3.58-3.43.3-1.05.67-2.07,1.13-3.06.42-.93.89-1.84,1.43-2.71.52-.82,1.06-1.61,1.62-2.36,2.07-2.72,4.58-5.07,7.44-6.94,2.65-1.61,5.5-2.86,8.48-3.71,2.87-.92,5.71-1.67,8.39-2.71,5.4-2.1,10.68-4.31,16.13-5.9,5.47-1.6,10.81-3.52,16.29-4.81,5.52-1.31,11.22-1.49,16.69-2.57,5.51-1.09,10.75-3.6,16.26-4.54,5.55-.93,11.13-1.48,16.63-2.29,5.56-.81,11.06-1.84,16.58-2.54,5.58-.69,11.26-.19,16.76-.78,5.58-.61,11.09-1.53,16.6-2.04,5.59-.54,11.11-1.31,16.62-1.76,5.6-.45,11.22.1,16.72-.28,5.6-.39,11.07-2.13,16.57-2.45,5.61-.32,11.17-.68,16.67-.94,5.62-.25,11.2.07,16.69-.12,5.62-.2,11.16-1.09,16.66-1.22,5.64-.15,11.2.04,16.69-.06,5.64-.09,11.21,1.21,16.67,1.17,5.65-.04,11.21-1.07,16.66-1.06,4.84.04,10.61-.47,17.11-.38,5.26.08,10.96,1.46,17.07,1.6,5.43.12,11.16.15,17.11.33l17.1.63c5.59.23,11.34-.08,17.12.22,5.65.29,11.28,1.74,17.01,2.1,5.69.35,11.44.09,17.13.51,5.73.44,11.52.06,17.16.57,5.79.51,11.4,1.97,16.97,2.55,5.84.6,11.63.51,17.14,1.16,5.93.72,11.51,2.23,16.9,2.98,6.07.85,11.96.56,17.17,1.42,6.46,1.06,12.03,2.74,16.78,3.67,5.9,1.18,11.03,2.41,15.59,3.48,6.07,1.43,10.88,3.39,15.25,4.65,5.94,1.7,11.22,2.11,15.76,3.79,4.94,2.01,9.78,4.28,14.49,6.78,4.08,2.06,9.18,3.87,14.36,7.9,2.02,1.62,3.74,3.57,5.1,5.77,1.65,2.46,2.55,5.36,2.57,8.33,0,.77-.02-.38-.43-.41-.37,0-.61,1.09-.7.5-.4-2.52-1.76-4.78-3.8-6.31-1.77-1.4-3.65-2.64-5.63-3.72-4.36-2.63-8.96-4.85-13.73-6.61-5.62-1.85-10.09-3.84-14.74-5.01-4.6-1.13-9.44-.64-15.35-1.91-4.26-.92-9.05-3.13-15.15-4.25-4.48-.81-9.56-1.7-15.46-2.62-5.06-.82-10.56-1.42-16.39-2.26-5.21-.74-10.83-.34-16.56-1.06-5.29-.65-10.7-2.22-16.39-2.83-5.36-.58-10.92-.65-16.57-1.17-5.4-.52-10.84-2.11-16.46-2.58-5.45-.44-11.01-.41-16.61-.79-5.47-.39-10.98-1.31-16.57-1.64-5.51-.31-11.09.25-16.65-.01-5.53-.27-11.06-.83-16.61-1.04s-11.13.52-16.67.36c-5.57-.16-11.12-.59-16.64-.69-5.59-.1-11.14-.71-16.64-.76-5.62-.05-11.18.51-16.66.51-5.65,0-11.21-.7-16.66-.65-5.69.05-11.23.72-16.64.82-5.73.1-11.27.5-16.62.65-5.8.16-11.34.65-16.62.85-5.9.23-11.48-.06-16.63.2-5.42.24-10.88.9-16.41,1.21-5.42.3-10.92.26-16.44.63-5.42.37-10.96-.25-16.48.19-5.42.42-10.89.9-16.39,1.4-5.42.51-10.8,1.8-16.28,2.39-5.41.57-10.92.62-16.39,1.28-5.4.65-10.79,1.64-16.24,2.39-5.39.76-10.81,1.47-16.23,2.35-5.37.87-10.6,2.62-15.97,3.63-5.32,1-10.79,1.38-16.12,2.58-5.28,1.18-10.48,2.7-15.69,4.12-5.18,1.42-10.07,3.76-15.04,5.52-4.92,1.76-10.02,3.16-14.45,5.51-2.19,1.16-4.38,2.23-6.31,3.43-1.74.97-3.26,2.29-4.46,3.88-.35.5-.59,1.06-.71,1.66-.09.42-.07.86.07,1.26.58,1.47,1.5,2.77,2.7,3.79,1.71,1.52,3.6,2.82,5.64,3.88,2.15,1.16,4.45,2.22,6.78,3.3,4.68,2.13,9.84,3.42,14.89,5.05,5.06,1.64,10.2,3.11,15.43,4.46,5.23,1.35,10.43,2.81,15.74,3.95s10.72,1.78,16.08,2.75c5.36.97,10.47,3.47,15.88,4.31,5.41.84,10.86,1.37,16.29,2.09s10.99.42,16.43,1.06,10.88,1.33,16.33,1.89,10.94.91,16.39,1.4,10.97.6,16.43,1.01c5.48.42,10.89,1.72,16.36,2.07,5.49.36,11.03-.31,16.5,0,5.49.29,10.9,1.97,16.38,2.21,5.51.24,11.01.22,16.48.4,5.51.19,11.01.02,16.49.15,5.51.14,11.03-.51,16.5-.42,5.51.09,10.99,1.32,16.47,1.36,5.52.03,11.02-.3,16.49-.31,5.53-.02,11.02-1.02,16.48-1.08,5.52-.06,11.02.62,16.48.51,5.52-.11,11.03.33,16.48.16,5.53-.16,11.03.12,16.49-.09,5.54-.21,10.98-1.74,16.42-2.01,5.52-.28,11.05.46,16.49.12,5.53-.32,10.93-2.13,16.35-2.51,5.52-.39,11.04,0,16.45-.45,5.52-.46,11.04-.32,16.44-.84,6.4-.66,11.89-2.08,16.82-2.65,6.57-.75,12.1-.66,16.93-1.26,6.34-.78,11.53-1.95,16.77-2.63s10.43-2.1,16.71-3.04c4.78-.73,10.32-.13,16.81-1.33,4.87-.91,10.18-3.16,16.37-4.63,7.25-1.75,12.98-2.89,17.82-4.41l8.94-2.71c2.81-.83,5.56-1.88,8.2-3.15,2.47-1.18,4.83-2.59,7.05-4.2.61-.43,1.14-.95,1.74-1.45.58-.55,1.11-1.13,1.61-1.75,1.13-1.34,1.91-2.95,2.26-4.67.11-.75-.39-1.07.02-1.01.37.04.42.65.39,1.35.06.12.22,0,.36-.15.09-.12.18-.25.25-.38Z"/><g id="Groupe_479"><path id="Tracé_18338" class="cls-7" d="m1102.03,343.42s46.4,63.55,56.93,87.9c10.53,24.35,49.86,84.4,49.86,84.4,0,0-79.34,9.12-117.17,6.83-37.82-2.29-93.89,2.52-93.89,2.52l52.13-90.82,52.13-90.82Z"/><path id="Tracé_18339" class="cls-7" d="m1101.7,351.74c-2.19,3.81-3.05,3.79-5.24,7.6-2.19,3.81-2.33,3.86-4.52,7.67-2.19,3.81-2.36,3.71-4.55,7.53s-2.82,3.45-5.01,7.27-2.18,3.82-4.36,7.64q-2.21,3.81-4.42,7.61c-2.19,3.82-2.47,3.65-4.67,7.47s-1.28,4.33-3.47,8.15-2.84,3.44-5.03,7.25-1.81,4.03-4,7.85-2.93,3.39-5.12,7.21-1.63,4.14-3.82,7.95-2.32,3.74-4.51,7.56-2.33,3.73-4.52,7.55-1.42,4.26-3.61,8.07l-4.39,7.62c-2.19,3.82-3.05,3.32-5.24,7.14l-4.34,7.65c-2.19,3.81-2.34,3.73-4.53,7.54s-2.09,3.87-4.28,7.69-2.05,3.9-4.23,7.71-2.1,3.87-4.29,7.68l-.31.56c-.05.09-.09.18-.14.27-.08.17-.15.32-.19.45-.08.2-.13.41-.16.62-.01.35-.1.7-.24,1.02.06-.01.17-.02.27-.03.45-.05.91,0,1.35.12.23.05.46.09.69.1h.11s.06,0,.06,0h.14l.61-.02,1.46-.09c4.4-.3,4.42,0,8.82-.29s4.38-.55,8.79-.8c4.4-.23,4.44.48,8.84.28s4.38-.66,8.78-.83,4.39-.54,8.8-.67,4.42.42,8.83.33c4.41-.05,4.4-.85,8.82-.88,4.42.04,4.41.7,8.82.77,4.42.14,4.4.77,8.8.98s4.43.08,8.79.25c4.37.19,4.38-.29,8.75-.26,4.37.05,4.37-.48,8.75-.54s4.37-.07,8.75-.22,4.37-.25,8.75-.47,4.41.41,8.79.14,4.38-.37,8.76-.68,4.34-.9,8.71-1.23,4.43.29,8.8-.07c4.38-.37,4.36-.57,8.74-.95,4.38-.4,4.34-.8,8.71-1.21s4.36-.51,8.73-.95,4.46.46,8.83,0c1.11-.17,2.24-.21,3.36-.13.97.06,1.94.04,2.9-.08l-.17-.27c-.41-.63-.74-1.11-1.03-1.5-.3-.41-.55-.73-.8-1.04s-.46-.6-.75-.98c-.35-.5-.85-1.23-1.43-2.14-2.38-3.71-3.15-3.22-5.52-6.93-2.35-3.73-2.64-3.54-4.99-7.28s-1.4-4.32-3.73-8.07c-2.33-3.74-2.79-3.46-5.09-7.21-2.31-3.76-2.67-3.54-4.96-7.31s-1.89-4.01-4.15-7.8c-2.24-3.81-2.11-3.88-4.33-7.7-2.18-3.85-1.8-4.06-3.95-7.92-2.08-3.91-2.86-3.48-4.87-7.45-1-1.99-1.51-2.97-1.99-3.98l-1.87-4.08c-.6-1.31-1.27-2.58-2.02-3.82-.27-.46-.54-.92-.86-1.51-.34-.58-.75-1.28-1.26-2.24-2.03-3.81-1.12-4.33-3.32-8.11-2.17-3.79-3.03-3.29-5.29-7.03-2.29-3.73-1.8-4.04-4.13-7.76-2.36-3.7-3.06-3.25-5.45-6.93-2.41-3.67-1.82-4.06-4.25-7.72-2.43-3.66-2.17-3.83-4.63-7.48-2.47-3.64-2.87-3.37-5.35-6.99-2.5-3.62-2.84-3.38-5.35-7-2.53-3.6-2.26-3.79-4.8-7.39-2.54-3.6-3.89-2.8-6.45-6.37-3.02-4.22-2.76-8.55-1.64-9.38s4.43.24,7.48,4.49c2.57,3.58,2.38,4.58,4.92,8.18,2.55,3.6,2.21,3.83,4.75,7.43,2.51,3.62,3.51,2.92,6.02,6.55s1.76,4.14,4.24,7.79l4.89,7.34c2.44,3.68,2.59,3.58,5.01,7.27,2.4,3.71,2.12,3.89,4.49,7.61,2.35,3.74,2.74,3.49,5.06,7.27,2.28,3.8,2.2,3.83,4.42,7.69,2.22,3.85,2.27,3.81,4.37,7.77.53.98.91,1.73,1.21,2.36.28.65.49,1.18.7,1.71.41,1.04.86,2.14,1.79,4.13,1.81,3.91,1.76,3.92,3.75,7.8,1.96,3.88,2.28,3.73,4.33,7.58,2.12,3.82,2.26,3.74,4.41,7.55,2.2,3.79,2.5,3.61,4.72,7.39,2.24,3.77,1.91,3.96,4.17,7.72,2.26,3.76,1.59,4.17,3.89,7.91,2.3,3.74,2.81,3.43,5.13,7.16,2.32,3.73,2.39,3.69,4.72,7.4s2.63,3.54,4.97,7.25,1.76,4.08,4.14,7.78c.59.92,1.05,1.61,1.44,2.17.61.89,1.1,1.6,1.59,2.31.51.74,1.01,1.48,1.65,2.4.65.98,1.43,2.16,2.47,3.73.31.47.59.91.61.94-3.18.35-4.97.48-6.75.61l-2.87.22-2.91.27c-4.38.45-4.34.92-8.72,1.35s-4.47-.39-8.85.03-4.33,1.06-8.72,1.46-4.44-.18-8.83.19c-4.39.36-4.33,1.07-8.72,1.41s-4.39.44-8.79.75-4.4.35-8.81.63-4.4.42-8.81.63-4.45-.74-8.86-.6-4.4.55-8.82.61-4.43-.64-8.85-.69-4.44,1.19-8.92.99c-4.48-.17-4.46.04-8.81-.17s-4.33-.82-8.7-.96c-4.37-.08-4.37-.17-8.74-.22l-8.76.03c-4.39.09-4.37.79-8.75.9-4.38.13-4.39-.15-8.77.02s-4.37.42-8.75.62-4.41-.37-8.79-.14c-4.38.24-4.37.47-8.75.73l-8.75.62-5.89.46-7.79.67-1.69.12c1.6-2.7,2.73-4.28,3.79-5.8.54-.76,1.06-1.52,1.65-2.42l.93-1.47.96-1.63c2.19-3.82,1.1-4.44,3.29-8.26,2.19-3.82,2.75-3.5,4.94-7.31l4.31-7.67c2.19-3.82,2.07-3.89,4.27-7.7,2.19-3.81,2.56-3.6,4.75-7.42q2.16-3.84,4.32-7.67t4.37-7.64c2.19-3.82,1.9-3.98,4.1-7.8,2.2-3.82,2.47-3.66,4.66-7.48,2.19-3.82,1.71-4.09,3.91-7.91s1.89-3.98,4.08-7.8,2.47-3.66,4.66-7.48c2.19-3.82,2.74-3.5,4.93-7.31l4.32-7.67c2.19-3.82,2.37-3.72,4.56-7.54s1.89-4,4.08-7.82c2.19-3.82,1.48-4.23,3.67-8.05,2.19-3.82,3.59-3.01,5.79-6.83,2.19-3.82,1.83-4.02,4.03-7.84,2.19-3.82,1.23-4.38,3.42-8.2s3.01-3.36,5.2-7.18c2.19-3.83,1.2-4.58,3.4-8.41,2.59-4.52,5.98-5.49,7.18-4.8s2.34,3.86-.25,8.38Z"/></g><g id="Groupe_480"><path id="Tracé_18340" class="cls-8" d="m1078.98,399.05h0c-1.06-.05-1.77-.02-1.72-.77.06-.97-.12-.99.01-1.97.17-.97.28-.95.5-1.91.48-1.23.94-2.47,1.37-3.72.47-.89.09-1.09.66-1.98.37-.6.79-1.17,1.26-1.7.23-.28.48-.53.75-.77.25-.26.52-.5.81-.72.28-.23.6-.43.93-.58.35-.12.68-.28.99-.47.31-.19.66-.32,1.02-.38.27-.04.52-.15,1.04-.29,1.02-.29.93-.71,2.02-.86.36-.07.73-.07,1.08,0,.35.07.7.1,1.06.09l1.06.06c.36,0,.71.04,1.06.13.7.18,1.38.44,2.02.76.34.11.66.3.93.55.27.23.56.44.87.62.83.63,1.21.18,1.99.95.28.24.51.51.71.82.15.22.31.44.64.86.36.6.67,1.22.94,1.86.3.61.55,1.23.77,1.88.32.94.74.81,1.01,1.79.09.34.14.56.19.74.05-.11.09-.23.15-.39.19-.64.41-1.26.67-1.87.47-.89.09-1.09.66-1.98.37-.6.79-1.17,1.26-1.7.23-.28.48-.53.75-.77.26-.26.53-.5.81-.72.28-.23.59-.43.93-.58.35-.12.68-.28.99-.47.31-.19.66-.32,1.02-.38.27-.04.52-.15,1.04-.29,1.02-.29.93-.71,2.02-.86.36-.07.73-.07,1.08,0,.35.07.71.1,1.06.09l1.06.06c.36,0,.71.04,1.06.13.7.18,1.38.44,2.02.76.34.11.66.3.93.55.27.23.56.44.87.62.83.63,1.21.18,1.99.95.27.24.51.51.71.82.15.22.31.44.64.86.36.6.68,1.22.94,1.86.3.61.56,1.23.77,1.88.32.94.74.81,1.01,1.79.18.65.32,1.3.42,1.96.18.98.14.99.26,1.98.04.99.09.99.07,1.98-.02.99-.49.97-.56,1.93s.18.99.05,1.96c-.19.96-.3.94-.54,1.89-.37,1.28-.78,2.54-1.24,3.78-.32.61-.68,1.19-1.09,1.74-.27.43-.4.66-.55.89-.17.31-.38.6-.61.86-.46.55-.98,1.06-1.54,1.51-.42.35-.65.5-.87.66-.29.22-.61.42-.94.59-.67.29-1.37.52-2.09.67-1.05.31-1.1-.02-2.14.14-.68.04-1.37.04-2.06,0-.68-.07-1.35-.18-2.02-.34-.69-.08-1.38-.24-2.04-.47-.34-.11-.66-.25-.98-.41-.24-.12-.49-.23-.95-.5-.61-.37-1.19-.81-1.71-1.29-.4-.37-.62-.52-.82-.7-.29-.22-.54-.48-.77-.77-.43-.56-.82-1.15-1.16-1.77-.49-.94-.02-1.13-.4-2.06-.3-.94-.59-.87-.82-1.84-.06-.25-.09-.51-.09-.76-.07.21-.16.44-.29.87-.19.64-.41,1.28-.66,1.9-.32.61-.68,1.19-1.09,1.73l-.55.89c-.17.31-.38.6-.62.86-.46.55-.98,1.06-1.54,1.51-.42.35-.65.5-.87.66-.29.22-.61.42-.94.59-.67.29-1.37.52-2.09.67-1.05.31-1.1-.02-2.14.14-.68.04-1.37.04-2.06,0-.68-.07-1.35-.18-2.02-.34-.69-.08-1.38-.24-2.04-.47-.34-.11-.66-.25-.98-.41-.24-.12-.49-.23-.95-.5-.61-.37-1.19-.81-1.71-1.29-.4-.37-.62-.52-.82-.7-.29-.22-.54-.48-.77-.77-.43-.56-.82-1.15-1.16-1.77-.49-.94-.02-1.13-.41-2.06-.3-.94-.59-.87-.82-1.84-.23-.97.05-1.02-.09-1.98s-.14-.96-.23-1.92c-.02-.96-.15-.96-.13-1.92.01-.74.73-.84,1.79-.8Zm24.61,1.09h-.31s0,0,0,0c.1,0,.2,0,.31,0h0Z"/><path id="Tracé_18341" class="cls-3" d="m1111.57,406.42c.02-.24.01-.26.02-.5,0-.3.19-.3.18-.62s-.11-.31-.13-.62-.16-.31-.2-.62c-.06-.32.02-.33-.05-.66-.09-.33.26-.41.13-.76-.08-.24-.18-.48-.3-.71-.13-.25-.28-.48-.45-.7-.26-.35-.43-.23-.74-.55-.36-.3-.46-.17-.86-.41-.4-.21-.27-.53-.75-.68-.49-.13-.52.06-.97,0-.31-.04-.62-.05-.93-.02-.48.08-.45.21-.9.35-.43.2-.35.35-.71.59-.34.25-.65-.06-.97.26-.3.33-.22.38-.45.71-.21.33-.06.41-.23.73-.08.22-.14.44-.19.67-.12.32-.45.21-.55.54-.08.33-.07.33-.14.65-.05.32-.06.32-.1.63s-.05.32-.07.63.39.33.39.64-.25.3-.24.62.15.31.17.62.06.32.1.63c.06.32-.04.34.04.67.08.22.18.43.29.64.12.33.03.38.18.72.11.25.23.49.38.71.27.58.77,1.01,1.37,1.21.44.23.54.04.98.17.59.15,1.21.14,1.8-.02.31-.02.62-.07.91-.17.28-.11.55-.26.8-.43.24-.16.45-.34.65-.55.27-.31.4-.2.64-.53.19-.33.27-.3.42-.63s-.22-.48-.1-.79.33-.24.43-.56c.07-.32-.16-.37-.1-.68s.08-.31.12-.61.12-.3.14-.6Z"/><path id="Tracé_18342" class="cls-3" d="m1086.55,403.24c.02-.24.01-.26.02-.5,0-.3.19-.3.18-.62s-.11-.31-.13-.62-.16-.31-.2-.62c-.06-.32.02-.33-.05-.66-.09-.33.26-.41.13-.76-.08-.24-.18-.48-.3-.71-.13-.25-.28-.48-.45-.71-.26-.35-.43-.23-.74-.55-.36-.3-.46-.17-.86-.41-.4-.21-.27-.53-.75-.69-.49-.13-.52.06-.97,0-.31-.04-.62-.05-.93-.02-.48.08-.45.21-.9.36-.43.2-.35.35-.71.59-.34.25-.65-.06-.97.26-.3.33-.22.38-.45.71-.21.33-.06.41-.23.73-.08.22-.14.44-.19.67-.12.32-.45.21-.55.54-.08.33-.07.33-.14.65-.05.32-.06.32-.1.64s-.05.32-.07.63.39.33.39.64-.25.3-.24.62.15.31.17.62.06.32.1.63c.06.32-.04.34.04.67.08.22.18.43.29.64.12.33.03.38.18.71.11.25.23.49.38.71.27.58.77,1.01,1.37,1.21.44.23.54.04.98.17.59.15,1.21.14,1.8-.02.31-.02.62-.07.91-.17.28-.11.55-.26.8-.43.23-.16.45-.34.65-.55.27-.31.4-.2.64-.53.19-.33.27-.3.42-.63s-.22-.48-.1-.79.33-.24.43-.57c.07-.32-.16-.37-.1-.68s.08-.3.12-.61.12-.29.14-.6Z"/></g><path id="Tracé_18343" class="cls-4" d="m987.64,461.46c1.87.27,3.27.5,4.44.7l3.12.51,1.38.24c.37.13,1.15-.03.79.59-.4,1.64-.81,3.28-1.31,5.33-.3,1.16-.65,2.55-1.12,4.4-.95,3.71-1.54,5.55-2.13,7.38-.61,1.82-1.2,3.66-2.58,7.27-1.41,3.6-2.17,5.39-2.93,7.18-1.03,2.4-2.24,4.71-3.64,6.92-1.39,2.23-2.89,4.38-4.51,6.44-1.61,2.1-3.39,4.06-5.32,5.86-1.93,1.83-4.06,3.44-6.36,4.77-1.74.97-3.46,1.98-7.08,3.64-2.42,1.09-4.94,1.96-7.52,2.6-2.58.69-5.24,1.06-7.92,1.12-2.69.07-5.39-.14-8.04-.63-.99-.23-1.99-.41-3.2-.8-.68-.19-1.36-.42-2.02-.68-.85-.31-1.68-.66-2.48-1.06-1.45-.68-2.85-1.48-4.17-2.39-1.06-.68-1.82-1.34-2.61-1.96-2.03-1.7-3.94-3.53-5.72-5.48-2.64-2.91-3.8-4.46-5.02-5.98-1.19-1.53-2.36-3.09-4.44-6.32-3.02-4.79-2.49-5.96-1.39-6.64,1.13-.69,2.2-.44,5.16,4.23,1.31,2.1,2.77,4.1,4.36,6,1.19,1.4,2.35,2.84,4.77,5.51,2.44,2.65,3.76,3.83,5.06,5.06.71.65,1.46,1.25,2.25,1.82,1.14.83,2.35,1.54,3.62,2.14,4.27,2.07,8.98,3.08,13.72,2.92,2.39-.03,4.76-.43,7.03-1.18,2.26-.71,4.48-1.54,6.65-2.5,2.16-.98,4.27-2.08,6.32-3.28,2.07-1.24,4-2.7,5.75-4.36,1.77-1.65,3.43-3.43,4.95-5.31,1.55-1.88,2.98-3.86,4.26-5.93,1.3-2.08,2.48-4.22,3.54-6.43.78-1.67,1.57-3.33,2.92-6.78.9-2.31,1.65-4.67,2.25-7.07.46-1.81.92-3.62,1.83-7.22.46-1.81.78-3.18,1.03-4.32.03-.14.06-.28.09-.42.01-.06,0-.02,0-.04v-.02s0-.02-.02-.02c-.02,0-.04,0-.06.02l-4.44-.63c-5.53-.81-5.01-2.08-4.82-3.37s.03-2.61,5.56-1.81Z"/><g id="Groupe_483"><g id="Groupe_482" class="cls-10"><ellipse id="Ellipse_87" class="cls-7" cx="886.54" cy="670.95" rx="111.22" ry="15.64"/><path id="Tracé_18344" class="cls-7" d="m776.36,671.1c.38.65.97,1.15,1.68,1.4.8.34,1.61.62,2.44.86,1.88.57,3.48,2.02,5.31,2.3,2.1.31,4.3-.81,6.14-.66,2.02.16,3.98.21,5.91.32s3.87.42,5.9.54c1.87.11,3.69,1.45,5.81,1.6,1.85.12,3.9-.56,6.04-.41,1.85.13,3.83.17,5.96.33,1.86.14,3.88-.17,6-.02,1.87.13,3.78,1.21,5.9,1.36,1.89.13,3.93-.46,6.04-.33,1.94.11,3.93.04,5.94.14,1.95.1,3.93.07,5.94.16,1.95.08,3.89,1.31,5.9,1.38,1.96.06,3.96-.33,5.97-.29,1.96.05,3.95-.33,5.96-.29l5.95.07c1.96.02,3.94.55,5.95.55,1.97,0,3.95.42,5.96.4,1.97-.01,3.95-1.18,5.95-1.2,1.97-.02,3.96.42,5.96.38,1.97-.04,3.96.15,5.96.1,1.97-.05,3.97.28,5.96.21,1.97-.07,3.94-.5,5.94-.58,1.97-.09,3.93-.8,5.91-.9s3.94-.31,5.92-.43,4.03,1.06,6.01.92,3.87-1.3,5.84-1.46,4.01.6,5.99.41,3.8-1.65,5.76-1.86,3.89-.59,5.83-.83,4.05.81,6,.54,3.86-.63,5.78-.95,3.73-1.2,5.62-1.57,3.73-.85,5.56-1.29c.46-.11.92-.19,1.38-.25.12-.03.25-.03.38,0l.25.04c.16.11.37.16.56.14.16-.05.07-.31-.15-.52-.16-.15-.34-.28-.54-.39.38.09.77.14,1.16.16.62.04,1.36-.08,1.34-.28s-.83-.27-1.5-.2c-.29.03-.58.07-.86.14-.12.03-.23.06-.34.1.11-.05.22-.1.32-.17.2-.12.39-.26.56-.43.35-.33.48-.73.27-.8-.11-.03-.23-.04-.35-.03-.14.02-.29.03-.44.04h-.28s-.7-.09-.7-.09c-.46-.08-.93-.16-1.39-.27-1.85-.44-3.83-.32-5.71-.68s-3.63-1.69-5.55-2c-1.94-.32-4.1.91-6.02.64-1.94-.27-3.84-.83-5.79-1.06-1.96-.24-3.95-.17-5.89-.38-1.97-.21-3.82-1.56-5.78-1.74-1.98-.18-3.98,0-5.94-.16-1.99-.16-3.98-.01-5.94-.15-1.99-.14-3.91-1.23-5.87-1.35-2-.12-4.05,1.16-6.01,1.06-2-.1-3.98-.12-5.94-.21-2-.08-3.96-.72-5.92-.79-2.01-.07-4.01.57-5.97.51-2.01-.06-3.99-.4-5.94-.44-2.01-.04-3.98-1.43-5.94-1.45-2.02-.03-4.01.97-5.96.95-1.73-.03-3.79.49-6.11.48-1.88,0-3.94-1.29-6.12-1.27-1.94.01-3.99.15-6.11.19l-6.11.11c-2,.05-4.02.68-6.09.75-2.01.07-4.1-.97-6.15-.88-2.04.08-4.04.84-6.07.94-2.05.11-4.04,1.04-6.04,1.17-2.06.12-4.16-.65-6.15-.52-2.09.15-4.06,1.03-6.02,1.18-2.11.17-4.21-.44-6.14-.27-2.17.19-4.07,1.52-5.92,1.7-2.29.22-4.4-.23-6.09-.07-2.11.18-3.96.26-5.6.42-2.17.21-4.08-.28-5.67-.12-2.16.21-3.69,1.6-5.34,1.73-1.77.15-3.57-.24-5.6-.02-1.56.19-3.12,1.11-5.03,1.64-.8.15-1.6.27-2.41.34-.83.14-1.84.47-2.1,1.42-.07.23.02-.1-.38-.17-.36-.09-.73.46-.75.16-.06-.72.05-1.44.32-2.11.23-.59.52-1.15.86-1.68.56-.91,1.26-1.72,2.09-2.4,2.07-1.58,4.09-1.93,5.57-2.76,2.07-1.13,4.01-1.1,5.69-1.8,1.66-.68,2.96-2.78,5.18-3.43,1.6-.47,3.7.23,5.95-.3,1.65-.39,3.53-.8,5.7-1.25,1.87-.35,3.86-.93,6.01-1.26,1.92-.3,3.81-1.71,5.93-1.99,1.96-.26,4.09.4,6.18.17,1.97-.22,3.96-.93,6.04-1.13,1.99-.19,4.11.73,6.17.56,2-.17,3.99-.77,6.05-.92,2.01-.14,4.07.29,6.11.17,2.01-.12,4-1.1,6.04-1.2,2.02-.1,4.07.13,6.1.05s4.03-1.06,6.06-1.13,4.08.18,6.1.13c2.05-.05,4.09.44,6.1.4,2.06-.03,4.08-.65,6.09-.66,2.07-.02,4.1.69,6.09.69,2.08,0,4.12-.59,6.1-.57,2.1.01,4.14-.23,6.1-.2,2.12.03,4.17-.23,6.1-.19,2.17.05,4.19.62,6.08.67,1.99.07,4.01-.22,6.05-.13,1.99.09,3.98.57,6.01.68,1.99.11,3.94,1.23,5.97,1.36l6.03.42c1.99.15,4.06-.45,6.09-.28,2,.17,3.96.94,5.98,1.13,2,.2,4.04.15,6.07.38,2,.23,4.01.57,6.03.84,2,.27,4.14-.25,6.18.06,2.02.31,3.93,1.35,5.96,1.72s4.1.54,6.16.99c1.05.19,2.11.3,3.17.32,1.59.09,3.15.38,4.67.86,1.81.56,3.57,1.29,5.24,2.17,1.57.85,2.96,1.73,4.29,2.61,1.13.78,2.07,1.8,2.75,2.99.58,1.05,1.08,2.14,1.49,3.27.24.61.4,1.25.46,1.9.05.35.09.69.09,1.04l-.09,1.04c-.16,1.25-.61,2.45-1.31,3.5-.67,1.08-1.47,2.07-2.37,2.96-1.09,1.07-2.34,1.96-3.71,2.64-1.51.76-3.04,1.56-4.74,2.29-1.68.76-3.42,1.39-5.2,1.88l-.95.25-.78.19-1.55.37-3.08.67c-2.05.42-4.13.55-6.16.9s-3.99,1.06-6.02,1.36-4.26-1.02-6.27-.76-3.99.76-6.01.98-3.92,1.42-5.94,1.61-4.04.28-6.05.44-4.02.48-6.03.62-4.01.61-6.02.73-4.08-.67-6.09-.58-3.98,1.17-5.99,1.25-4.08-1.24-6.08-1.18-4.02.36-6.02.4-4.02.41-6.03.44-4.02.79-6.03.81c-2.02.01-4.04-1.15-6.04-1.16-2.02,0-4.03.33-6.03.31-2.02-.02-4.04.92-6.04.88-2.02-.04-4.02-.85-6.02-.9-2.02-.06-4.02-.68-6.01-.75-2.02-.07-4.01-.62-6-.71-2.02-.09-4.08,1.08-6.08.98-2.03-.11-3.98-1.24-5.97-1.37-2.02-.13-4.12,1.16-6.11,1.01-2.03-.15-3.98-1.12-5.96-1.29-2.03-.18-3.98-.99-5.96-1.19-2.35-.2-4.48.42-6.3.22-2.43-.26-4.35-1.26-6.12-1.52-2.33-.34-4.32-.2-6.24-.59s-3.96-.13-6.27-.7c-1.76-.43-3.46-2.35-5.82-2.98-1.77-.48-4.04.09-6.36-.6-2.23-.76-4.4-1.67-6.52-2.71-2.43-1.01-4.06-2.58-6.02-3.91-.91-.63-1.74-1.35-2.5-2.15-.43-.46-.82-.96-1.16-1.5-.38-.58-.59-1.25-.6-1.94.03-.25-.5-.38-.09-.36.38.02.47.19.53.37.14.02.54-.24.55-.22Z"/></g><path id="Tracé_18345" class="cls-4" d="m889.16,600.15c0,4.73-.35,4.73-.35,9.46s-.12,4.73-.12,9.46.36,4.73.36,9.46.15,4.73.15,9.46-.55,4.73-.55,9.47.17,4.73.17,9.46l.06,9.47c0,.56,0,1.06,0,1.5v.32c0,.12,0,.06,0,.09v.08c-.04.12-.06.22-.08.31.1.04.2.07.3.08l.11.02h.64s1.64.02,1.64.02c4.74,0,4.74-.23,9.48-.23,3.5,0,3.97,1.02,3.97,2.34s-.47,2.16-3.97,2.16c-4.73,0-4.73.45-9.46.45-.63,0-1.17,0-1.65-.02l-1.9-.06c-1.48-.05-2.6-.12-3.72-.19.06-1.1.12-2.2.16-3.51.02-.56.03-1.17.05-1.85,0-.44.01-.93.02-1.49q.05-4.73.09-9.46c0-4.73-.55-4.73-.55-9.46s.42-4.73.42-9.47l.04-9.46q-.03-4.73-.06-9.47c0-4.74-.38-4.74-.38-9.48s-.11-4.74-.11-9.48c0-3.5,1.34-3.29,2.66-3.29s2.6-.21,2.6,3.29Z"/><path id="Tracé_18346" class="cls-4" d="m860.73,600.15c0,4.73-.35,4.73-.35,9.46s-.12,4.73-.12,9.46.36,4.73.36,9.46.15,4.73.15,9.46-.55,4.73-.55,9.47.17,4.73.17,9.46q.03,4.73.06,9.47c0,.56,0,1.06,0,1.5v.32c0,.12,0,.06,0,.09v.08c-.04.12-.06.22-.08.31.09.04.19.06.3.08l.11.02h.64s1.64.02,1.64.02c4.74,0,4.74-.23,9.48-.23,3.5,0,3.97,1.02,3.97,2.34s-.47,2.16-3.97,2.16c-4.73,0-4.73.45-9.46.45-.63,0-1.17,0-1.65-.02l-1.9-.06c-1.48-.05-2.6-.12-3.72-.19.06-1.1.12-2.2.16-3.51.02-.56.03-1.17.05-1.85,0-.44.01-.93.02-1.49q.05-4.73.09-9.46c0-4.73-.55-4.73-.55-9.46s.42-4.73.42-9.47l.04-9.46q-.03-4.73-.06-9.47c0-4.74-.38-4.74-.38-9.48s-.11-4.74-.11-9.48c0-3.5,1.34-3.29,2.66-3.29s2.61-.21,2.61,3.29Z"/><path id="Tracé_18347" class="cls-5" d="m928.71,485.69c18.22,10.47,32.8,23.45,39.71,43.11,7.93,22.56-.74,48.33-19.99,62.72-18.95,14.17-40.15,21.05-63.72,21.18-16.38.09-32.46-2.26-47.68-8.08-16.34-6.25-31.55-14.78-41.73-29.86-13.85-20.51-10.9-49.39,6.5-65.77,8.91-8.39,18.78-14.04,31.34-18.64-1.97-1.93-4.03-3.75-6.19-5.45-8.59-6.06-15.76-13.09-17.34-24.13-1.44-10.03,1.44-19.47,5.05-28.49,2.49-6.22,6.38-11.99,10.26-17.53,7.44-10.61,18.11-16.69,30.31-20.45,13.93-4.29,28.05-5.39,42.19-1.77,21.04,5.38,45.02,29.13,46.94,51.78,1.35,15.87-3.15,28.38-14,39.28-.59.67-1.14,1.37-1.65,2.1Z"/></g><path id="Tracé_18348" class="cls-4" d="m915.27,450.11c-.82,0-.82-.35-1.65-.35s-.82-.12-1.65-.13-.82.36-1.65.35-.82.15-1.65.15-.82-.55-1.65-.55-.82.17-1.65.17-.82.06-1.65.06-.82-.22-1.65-.22-.82.23-1.65.22c-.61,0-.69-1.02-.68-2.33,0-1.31.09-2.15.7-2.14.82,0,.82-.45,1.65-.44s.82.51,1.64.51.82.09,1.64.09.82-.55,1.65-.54.82.41,1.64.42.82.04,1.64.04.82-.06,1.64-.06.82-.38,1.65-.38.82-.11,1.65-.11c.61,0,.57,1.33.57,2.65s.04,2.59-.57,2.59Z"/><path id="Tracé_18349" class="cls-4" d="m845.94,590.7c-1.53-.19-3.05-.51-4.53-.96-1.09-.43-1.64-.62-2.2-.8-.73-.29-1.44-.64-2.12-1.03-1.36-.81-2.63-1.75-3.8-2.81-1.71-1.62-1.46-1.86-2.93-3.64-1.36-1.85-1.81-1.56-2.99-3.58-.36-.69-.63-1.42-.81-2.17-.12-.76-.33-1.49-.63-2.2-.25-.71-.56-1.4-.91-2.07-.37-.66-.64-1.37-.8-2.11-.57-2.18-.16-2.26-.58-4.44-.11-.73-.18-1.46-.21-2.2-.04-.55-.07-1.1-.14-2.2-.15-2.19-.75-2.16-.77-4.36-.05-2.2.18-2.19.22-4.38.08-2.18.36-2.16.5-4.33.21-2.16.37-2.14.6-4.29.32-2.13-.06-2.19.27-4.33.39-2.12.29-2.14.71-4.27.46-2.11.7-2.06,1.18-4.16.53-2.09.47-2.1,1.01-4.19.59-2.07.83-2,1.43-4.07.65-2.05.11-2.22.77-4.28l1.42-4.07c.76-2.02,1.07-1.9,1.85-3.91.8-2,.9-1.96,1.74-3.94.84-1.98,1.02-1.91,1.91-3.86.71-1.51,1.55-1.16,2.81-.54s2.45,1.26,1.77,2.71c-.86,1.89-1.09,1.78-1.9,3.7-.81,1.92-1.17,1.76-1.94,3.7-.75,1.94-.51,2.04-1.24,3.98-.69,1.96-.56,2.01-1.24,3.97l-1.3,3.94c-.58,1.99-.65,1.97-1.22,3.97-.52,2.01-.81,1.94-1.32,3.95-.47,2.03-.27,2.07-.71,4.1-.4,2.04,0,2.11-.38,4.14-.32,2.04-.84,1.96-1.14,4.01-.22,2.06.31,2.12.11,4.16-.13,2.04-.73,2.01-.8,4.07-.04,2.06.13,2.07.18,4.11.02,2.04.33,2.03.47,4.04.05.68.02,1.36-.09,2.03-.13.67-.14,1.36-.03,2.04.39,1.98.59,1.95,1.1,3.87.14.65.35,1.28.64,1.88.21.45.38.92.73,1.83.25.6.45,1.22.6,1.86.2.62.44,1.22.74,1.8.54,1.17,1.18,2.3,1.9,3.37,1.22,1.49,1.64,1.12,2.98,2.38.89.85,1.86,1.62,2.9,2.28.81.46,1.21.68,1.61.94.55.29,1.12.55,1.7.77,1.18.48,2.39.85,3.63,1.12,1.46.2,1.48,1.14,1.34,2.54-.13,1.39-.32,2.13-2.08,1.89Z"/><g id="Groupe_484"><path id="Tracé_18350" class="cls-8" d="m921.46,421.52h0c1.2,0,2.02.07,1.99-.79-.03-1.11.18-1.12.08-2.24-.14-1.11-.27-1.09-.47-2.19-.49-1.42-.94-2.85-1.37-4.29-.49-1.03-.05-1.25-.64-2.28-.39-.7-.84-1.37-1.34-1.99-.25-.32-.52-.63-.81-.92-.28-.31-.57-.59-.88-.86-.31-.28-.65-.52-1.03-.71-.39-.15-.76-.35-1.1-.58-.34-.23-.73-.4-1.14-.48-.31-.06-.58-.2-1.16-.38-1.14-.39-1.02-.86-2.25-1.08-.4-.1-.82-.12-1.23-.05-.4.06-.81.08-1.21.05l-1.2.02c-.41-.02-.81.02-1.21.09-.8.17-1.58.42-2.33.76-.4.11-.77.31-1.08.57-.32.25-.66.47-1.02.66-.98.67-1.38.14-2.31.98-.32.26-.61.56-.85.89-.18.25-.37.49-.77.94-.44.66-.83,1.35-1.17,2.07-.37.67-.69,1.37-.97,2.09-.42,1.05-.88.88-1.24,1.98-.12.38-.19.63-.25.84-.05-.13-.09-.27-.15-.45-.18-.73-.4-1.45-.66-2.16-.49-1.03-.05-1.25-.65-2.28-.39-.7-.84-1.37-1.34-1.99-.25-.32-.52-.63-.81-.92-.28-.31-.57-.59-.88-.86-.31-.28-.65-.52-1.03-.71-.39-.15-.76-.35-1.1-.58-.34-.23-.73-.4-1.14-.48-.31-.06-.58-.2-1.16-.38-1.14-.39-1.02-.86-2.25-1.08-.4-.1-.82-.12-1.23-.05-.4.06-.81.08-1.21.05l-1.2.02c-.41-.02-.81.02-1.21.09-.8.17-1.59.42-2.33.76-.4.11-.77.31-1.08.57-.32.25-.66.47-1.02.66-.98.67-1.38.14-2.31.98-.32.26-.61.56-.85.89-.18.25-.37.49-.77.94-.44.66-.83,1.35-1.17,2.07-.37.67-.69,1.37-.97,2.09-.42,1.05-.89.88-1.24,1.98-.23.72-.43,1.46-.57,2.21-.25,1.11-.21,1.12-.39,2.23-.09,1.12-.15,1.12-.19,2.25-.03,1.13.51,1.13.54,2.22.03,1.09-.25,1.12-.15,2.22.17,1.1.29,1.08.52,2.17.35,1.47.76,2.92,1.22,4.36.33.7.71,1.38,1.15,2.03l.57,1.03c.18.36.4.7.66,1.01.5.65,1.06,1.25,1.68,1.79.46.42.71.6.96.8.32.27.67.51,1.03.72.75.37,1.54.66,2.34.86,1.18.4,1.25.03,2.42.27.78.08,1.55.11,2.33.1.78-.04,1.55-.14,2.31-.28.79-.06,1.58-.21,2.34-.44.39-.11.77-.25,1.13-.42.28-.12.57-.23,1.11-.52.71-.39,1.39-.86,2.01-1.38.47-.39.73-.56.97-.75.34-.24.64-.52.91-.83.52-.62.99-1.27,1.41-1.96.61-1.04.08-1.28.56-2.32.39-1.06.71-.95,1.03-2.04.09-.28.13-.57.14-.86.07.25.16.51.29,1,.18.74.4,1.47.65,2.19.33.7.71,1.38,1.15,2.03.28.51.43.77.57,1.03.18.36.4.7.66,1.01.5.65,1.06,1.25,1.68,1.79.46.42.71.6.96.8.32.27.67.51,1.03.72.75.37,1.53.66,2.34.86,1.18.4,1.25.03,2.42.27.78.08,1.55.11,2.33.1.78-.04,1.55-.14,2.31-.28.79-.06,1.58-.21,2.34-.44.39-.11.77-.25,1.13-.42.28-.12.57-.23,1.11-.52.71-.4,1.38-.87,2-1.4.47-.39.73-.56.97-.75.34-.24.64-.52.91-.83.52-.62.99-1.27,1.41-1.96.61-1.04.08-1.28.56-2.32.38-1.06.71-.95,1.03-2.04s0-1.17.21-2.25c.21-1.08.2-1.08.36-2.17.07-1.09.22-1.08.25-2.18.02-.84-.8-1-2-1Zm-28.01,0h.35c-.11,0-.23,0-.35,0Z"/><path id="Tracé_18351" class="cls-3" d="m883.88,423.36c0-.27,0-.3,0-.56,0-.35-.2-.35-.18-.71s.14-.35.18-.7.19-.34.25-.69c.08-.36,0-.38.09-.74.12-.37-.27-.48-.11-.87.11-.27.23-.53.37-.79.16-.27.34-.53.55-.78.31-.39.5-.24.86-.59.43-.32.54-.17,1-.42.46-.22.33-.58.89-.74.56-.12.59.09,1.1.06.35-.03.71-.02,1.06.02.54.11.5.26,1.01.45.48.25.39.41.78.71.38.3.74-.04,1.09.34.32.39.23.44.47.83.22.39.05.47.22.84.08.25.14.51.18.77.12.37.5.27.59.65.08.37.06.37.12.74.04.36.06.37.09.73s.04.36.05.72-.46.36-.47.7.27.36.24.72-.19.35-.23.7-.08.36-.15.72c-.09.36.03.39-.08.76-.11.24-.23.48-.36.71-.15.37-.05.43-.24.8-.13.28-.29.54-.47.79-.18.28-.4.55-.64.79-.31.21-.64.38-.99.52-.51.23-.61.01-1.12.14-.68.14-1.38.1-2.04-.11-.35-.03-.7-.11-1.03-.24-.32-.14-.62-.32-.89-.53-.26-.19-.5-.41-.71-.65-.3-.36-.45-.25-.7-.63-.16-.24-.31-.48-.44-.74-.16-.39.28-.53.16-.89s-.36-.29-.45-.66c-.07-.36.2-.41.15-.76s-.08-.35-.1-.7-.12-.34-.13-.69Z"/><path id="Tracé_18352" class="cls-3" d="m912.88,423.36c0-.27,0-.3,0-.56,0-.35-.2-.35-.18-.71s.14-.35.18-.7.19-.34.25-.69c.08-.36,0-.38.09-.74.12-.37-.27-.48-.11-.87.11-.27.23-.53.37-.79.16-.27.34-.53.55-.78.31-.39.5-.24.86-.59.43-.32.54-.17,1-.42.46-.22.33-.58.89-.74.56-.12.59.09,1.1.06.35-.03.71-.02,1.06.02.54.11.5.26,1,.45.48.25.39.41.78.71.38.3.74-.04,1.09.34.32.39.23.44.47.83.22.39.05.47.22.84.08.25.14.51.18.77.12.37.5.27.59.65.08.37.06.37.12.74.04.36.06.37.09.73s.04.36.05.72-.46.36-.47.7.27.36.24.72-.19.35-.23.7-.08.36-.15.72c-.09.36.03.39-.08.76-.11.24-.23.48-.36.71-.15.37-.05.43-.24.8-.13.28-.29.54-.47.79-.18.28-.4.55-.64.79-.31.21-.64.38-.99.52-.51.23-.61.01-1.12.14-.68.14-1.38.1-2.04-.11-.35-.03-.7-.11-1.03-.24-.32-.14-.62-.32-.89-.53-.26-.19-.5-.41-.71-.65-.3-.36-.45-.25-.7-.63-.19-.38-.29-.35-.44-.74s.28-.53.16-.89-.36-.29-.45-.66c-.07-.36.2-.41.15-.76s-.08-.35-.1-.7-.11-.34-.12-.69Z"/></g></g></svg>