<?xml version="1.0" encoding="UTF-8"?><svg id="Layer_2" xmlns="http://www.w3.org/2000/svg" xmlns:xlink="http://www.w3.org/1999/xlink" viewBox="0 0 1435.15 875.12"><defs><style>.cls-1{clip-path:url(#clippath);}.cls-2,.cls-3{fill:none;}.cls-2,.cls-4,.cls-5,.cls-6,.cls-7,.cls-8,.cls-9,.cls-10,.cls-11,.cls-12{stroke-width:0px;}.cls-13{clip-path:url(#clippath-1);}.cls-14{clip-path:url(#clippath-3);}.cls-15{clip-path:url(#clippath-2);}.cls-3{stroke:#fff;stroke-miterlimit:10;stroke-width:8px;}.cls-16{opacity:.25;}.cls-5{fill:#1b1464;}.cls-6{fill:#100708;}.cls-7{fill:#c3c8d7;}.cls-8{fill:#9de7ff;}.cls-9{fill:#b5d403;}.cls-10{fill:#fff;}.cls-11{fill:#00aae3;}.cls-12{fill:#00817e;}</style><clipPath id="clippath"><rect class="cls-2" width="1435.15" height="875.12"/></clipPath><clipPath id="clippath-1"><rect class="cls-2" width="1435.15" height="875.12"/></clipPath><clipPath id="clippath-2"><rect class="cls-2" width="1435.15" height="875.12"/></clipPath><clipPath id="clippath-3"><rect class="cls-2" x="876.84" y="555.46" width="193.99" height="35.08"/></clipPath></defs><g id="Layer_1-2"><g class="cls-1"><g id="Groupe_707"><path id="Tracé_40288" class="cls-12" d="m4,4h1427.15v867.12H4V4Z"/><g id="Groupe_695"><g class="cls-13"><g id="Groupe_694"><rect id="Rectangle_163" class="cls-3" x="4" y="4" width="1427.15" height="867.12"/></g></g></g><g id="Groupe_706"><g class="cls-15"><g id="Groupe_705"><g id="Groupe_704" class="cls-16"><g id="Groupe_703"><g class="cls-14"><g id="Groupe_702"><path id="Tracé_40170" class="cls-5" d="m1070.64,572.92c0,8.25-42.66,14.94-95.28,14.94s-95.28-6.69-95.28-14.94,42.66-14.94,95.28-14.94,95.28,6.69,95.28,14.94"/><path id="Tracé_40171" class="cls-5" d="m1070.81,572.78c.04-.5-.06-.99-.3-1.43-.35-.65-.81-1.24-1.38-1.72-1.57-1.28-3.32-2.31-5.2-3.05-4.96-1.97-10.08-3.47-15.32-4.49-11.1-2.36-22.38-3.58-24.97-3.99-2.66-.41-5.31-.11-7.97-.33-2.84-.24-5.68-.95-8.52-1.23-2.44-.31-4.9-.41-7.35-.31l-.9.06c-3.51-.31-7.02-.53-10.53-.63-2.37-.07-4.74-.09-7.11-.08-2.19-.15-4.4-.15-6.59,0l-4.98.27-5.2.25c-2.13-.01-4.16-.2-6.38-.27-5.32,0-10.64.4-15.9,1.2-2.26.27-4.47.58-6.72.66-.05-.03-.1-.05-.15-.07-1.24-.32-2.52-.38-3.78-.18-2.08.08-3.78.02-5.83.08-1.46.05-3.87-.15-5.07.78-3.84.37-7.68.82-11.52,1.34-2.66.38-5.3.92-7.91,1.59-4.19.39-8.34,1.13-12.4,2.22-2.17.58-4.27,1.36-6.29,2.34-1.17.57-2.27,1.29-3.25,2.15-.33.29-.63.61-.92.94-.33.4-.61.83-.85,1.28-.47.89-.71,1.89-.69,2.91.04,1.01.33,2,.85,2.87.27.45.59.88.95,1.27.26.29.55.56.84.82.99.82,2.08,1.52,3.24,2.08,2.02.97,4.12,1.76,6.27,2.36,4.05,1.13,8.18,1.99,12.34,2.59,1.99.3,3.99.58,5.98.82.72.18,1.45.31,2.18.39,5.32.58,10.64,1.02,15.95,1.34,5.47.33,10.99,1.48,16.48,1.9,5.51.43,11.04.56,16.56.39,2.4-.08,4.88-.36,7.28-.37,2.82-.01,5.78.76,8.66.88,6.14.25,12.28.03,18.38-.66l9.16-1.07c3.29-.41,6.06.56,9.23.49,3.07-.05,6.14-.28,9.18-.69,3.32-.48,6.06-1.24,9.45-1.27,3.02-.03,12.12-1.24,21.04-3.46,4.24-1,8.38-2.35,12.39-4.04,1.57-.67,3.07-1.5,4.47-2.48.95-.62,1.75-1.45,2.34-2.42.26-.47.32-1.01.18-1.52-.17-.42-.39-.51-.49-.25-.14.45-.4.86-.73,1.2-.83.8-1.79,1.45-2.83,1.93-3.19,1.45-6.52,2.57-9.94,3.33-5.36,1.28-10.78,2.25-16.25,2.91-2.78.22-5.67.7-8.44,1.07-2.91.4-5.48,1.06-8.47.97-2.69-.08-5.21.06-7.91.25h-.05c-11.47-.37-23.03.52-34.6,1.09-1.83-.03-3.65-.05-5.49.02-1.21.04-2.45.04-3.65.13-.61.05-1.19.14-1.77.24-1.52.03-3.04.04-4.56.03l-3.54-.03c-3.6-.37-7.19-.86-10.8-1.09-3.61-.24-7.29-.36-10.96-.44-2.46-1-5.11-1.42-7.76-1.23-2.95.18-5.88.28-8.82.33-1.73-.21-3.47-.46-5.22-.74-2.4-.38-4.79-.78-7.18-1.23-2.59-.4-5.22-.6-7.84-.6-2.83-.28-5.61-.96-8.25-2-2.63-.85-5.19-1.87-7.69-3.06-1.07-.5-2.11-1.07-3.12-1.69-.41-.26-.79-.56-1.15-.89-.16-.13-.29-.3-.38-.49-.09-.23-.09-.48,0-.71.04-.12.09-.23.15-.34.14-.2.3-.38.47-.56.85-.82,1.79-1.54,2.8-2.15,2.43-1.39,5.08-2.35,7.84-2.82,2.8-.57,5.67-.88,8.41-1.21,4.47-.54,8.89-1.24,13.36-1.87,3.71.24,7.43.21,11.14-.07,6.72-.59,13.37-1.88,20.09-2.81l3.72.14c5.34.18,10.51-1.11,15.8-.9,5.73.22,12.11,1.21,17.73.09,2.75-.49,5.56-.55,8.34-.18,1.14.99,2.63,1.47,4.13,1.32.76-.09,1.5-.24,2.23-.47,1.34.17,2.7.31,4.07.37,3.03.13,6.11.05,9.14-.02,3.05,0,6.09.24,9.09.73,2.89.39,14.56,1.16,26.08,2.87,5.38.72,10.7,1.84,15.92,3.35,1.92.55,3.76,1.35,5.49,2.36,1.05.53,1.83,1.46,2.17,2.58.04.16.26.18.27-.02"/></g></g></g></g><path id="Tracé_40172" class="cls-7" d="m1108.25,368.26l-9.62,3.43c-10.57-11.78-16.23-25.5-14.97-41.96l9.62-3.43,14.97,41.96Z"/><path id="Tracé_40173" class="cls-7" d="m1126.21,366.33l23.84,52.1,16.74-3.69-25.76-55.32-14.83,6.91Z"/><path id="Tracé_40174" class="cls-8" d="m1092.63,315.93c72.74-20.39,112.49-74.69,112.49-74.69l33.28,147.68s-57.45-32.11-130.98-13.83c-8.13,2.21-22.86-46.15-14.79-59.16"/><path id="Tracé_40175" class="cls-7" d="m1246.98,309.24c-9.52-41.36-26.8-72.69-38.61-69.97-9.66,2.22-12.65,26.58-8.2,58.04,11.97-2.44,23.65,5.28,26.1,17.25,2.36,11.55-4.76,22.92-16.18,25.85,9.74,30.25,23.08,50.87,32.75,48.64,11.8-2.72,13.66-38.45,4.14-79.81"/><path id="Tracé_40176" class="cls-11" d="m1226.78,318.98c-.01-12.23-9.94-22.14-22.17-22.13-1.49,0-2.97.15-4.43.45.99,6.97,2.33,14.27,4.06,21.77s3.7,14.64,5.86,21.33c9.81-2.49,16.68-11.31,16.68-21.43"/><path id="Tracé_40177" class="cls-6" d="m950.11,482.08c0,6.07-.35,6.07-.35,12.14s-.12,6.07-.12,12.14.36,6.07.36,12.15.15,6.07.15,12.14-.55,6.08-.55,12.15.17,6.07.17,12.14q.03,6.08.06,12.15c0,.72,0,1.36,0,1.93,0,.29,0,.56-.01.81,0,.13,0,.25,0,.37,0,.03,0,.07,0,.1-.03.15-.05.26-.07.38.13.04.26.07.4.08l1.57.03c.62,0,1.31,0,2.11.01,6.08,0,6.08-.23,12.16-.23,4.49,0,5.09,1.03,5.09,2.35s-.6,2.16-5.09,2.16c-6.07,0-6.07.45-12.14.45l-2.12-.03-1.73-.06c-1.91-.05-3.37-.12-4.83-.19.05-1.35.1-2.74.16-4.46.02-.53.03-1.11.05-1.77,0-.57.01-1.2.02-1.91q.05-6.07.09-12.14c0-6.07-.55-6.07-.55-12.15s.42-6.07.42-12.15l.04-12.14q-.03-6.08-.06-12.15c0-6.08-.38-6.08-.38-12.16q-.05-6.08-.11-12.16c0-4.49,1.34-4.22,2.67-4.22s2.62-.27,2.62,4.22"/><path id="Tracé_40178" class="cls-6" d="m1003.42,477c0,6.07-.35,6.07-.35,12.14s-.12,6.07-.12,12.14.36,6.07.36,12.15.15,6.07.15,12.14-.55,6.07-.55,12.15.17,6.07.17,12.14q.03,6.08.06,12.15c0,.72,0,1.36,0,1.93,0,.29,0,.55-.01.81,0,.13,0,.25,0,.37,0,.03,0,.07,0,.1l-.07.38c.13.04.26.07.4.08l1.57.03h2.11c6.08.01,6.08-.22,12.16-.22,4.49,0,5.09,1.03,5.09,2.35s-.6,2.16-5.09,2.16c-6.07,0-6.07.45-12.14.45l-2.12-.02-1.73-.06c-1.91-.05-3.37-.12-4.83-.19.05-1.35.1-2.74.16-4.45.02-.53.03-1.11.05-1.77,0-.57.01-1.2.02-1.91q.04-6.07.09-12.14c0-6.07-.55-6.07-.55-12.15s.42-6.07.42-12.15l.04-12.14q-.03-6.08-.06-12.15c0-6.08-.38-6.08-.38-12.16l-.11-12.16c0-4.49,1.34-4.22,2.67-4.22s2.62-.27,2.62,4.22"/><path id="Tracé_40179" class="cls-9" d="m1072.74,432.2c.86,12.75,1.46,25.52,2.69,38.23.64,6.59-.81,9.77-7.06,10.78-21.37,3.44-42.73,6.96-64.14,10.08-20.67,3.01-41.35,6.19-62.13,8.13-16.7,1.56-33.55,1.48-50.34,1.93-4,.11-8.41.37-11.96-1.07-7.45-3.02-6.75-10.41-7.11-16.82-.93-16.79-1.62-33.59-2.47-50.39-.77-15.05-1.65-30.1-2.43-45.15-.83-16.02-1.85-32.04-2.3-48.07-.24-8.58.67-17.19.83-25.79.04-2.49-1.68-5.32-.95-7.43,1.66-5.06,6.38-8.48,11.7-8.5,9.01-.36,18.04.15,27.06-.06,19.66-.45,39.33-.76,58.96-1.84,14.54-.8,29-2.87,43.52-4.13,15.74-1.37,31.35-5.25,47.34-1.99,6.97,1.42,8.36,2.9,8.93,10.24.64,8.1,1.95,16.15,2.74,24.24.87,8.91,1.6,17.84,2.19,26.79,1.12,17.24,2.06,34.49,3.13,51.74.61,9.7,1.34,19.38,2.02,29.07h-.22"/><path id="Tracé_40180" class="cls-6" d="m1063.25,350.55c-1.68,1.5-2.92,2.64-4.02,3.52-1.11.86-1.99,1.56-2.88,2.25s-1.8,1.34-2.93,2.18-2.46,1.87-4.3,3.16l-2.42,1.73c-.72.5-1.38.91-1.96,1.3-1.18.76-2.11,1.38-3.07,1.97-1.94,1.13-3.82,2.36-7.74,4.52-1.94,1.13-3.45,1.87-4.67,2.56s-2.21,1.22-3.2,1.74l-3.24,1.68c-1.27.59-2.81,1.29-4.87,2.18l-4.95,1.99-3.42,1.29c-2.1.8-4.23,1.54-8.53,2.83-2.88.85-5.8,1.52-8.76,2.02-1.1.21-2.22.34-3.6.59-.69.12-1.45.27-2.31.42l-2.93.5c-2.2.41-3.86.66-5.25.86s-2.49.42-3.6.54c-2.22.28-4.44.61-8.92.89-4.48.24-6.73.33-8.97.33-1.12,0-2.25.04-3.65.02-1.4-.04-3.09-.08-5.33-.17-2.24-.15-3.92-.27-5.32-.39l-3.63-.45c-1.11-.13-2.23-.29-3.61-.52s-3.06-.41-5.27-.83c-4.43-.73-6.62-1.25-8.84-1.64l-3.56-.82c-1.37-.3-3-.76-5.16-1.4-1.28-.35-2.54-.8-3.74-1.36-.72-.31-1.39-.71-2-1.19-.67-.41-.94-1.24-.65-1.97.22-.62.61-1.05,1.71-1.08.76.01,1.51.11,2.24.3.96.23,2.18.58,3.73,1.01,2.78.84,5.6,1.52,8.46,2.04,2.16.32,4.28.77,8.57,1.48,2.14.4,3.75.61,5.09.85,1.34.25,2.41.45,3.49.6s2.15.35,3.5.53c1.35.15,2.99.28,5.16.43,2.18.08,3.82.14,5.18.19s2.46.02,3.55.04c2.18.03,4.37-.01,8.73-.24,2.91-.17,5.8-.52,8.67-1.06,1.08-.17,2.14-.42,3.48-.65s2.95-.49,5.09-.89l2.85-.48c.84-.16,1.57-.3,2.24-.43,1.34-.25,2.42-.4,3.49-.61,2.86-.52,5.7-1.19,8.49-2.02,2.1-.57,3.65-1.13,4.95-1.52,1.31-.39,2.33-.77,3.36-1.13l3.34-1.18,4.82-1.9,4.75-2.08,3.19-1.54c.99-.47,1.96-.95,3.17-1.6,1.2-.65,2.68-1.35,4.57-2.45,2.55-1.41,5.02-2.95,7.41-4.62l2.88-2.06,1.87-1.3,2.34-1.7c1.78-1.25,3.05-2.28,4.12-3.11,1.07-.84,1.93-1.51,2.74-2.23l2.69-2.3c1.03-.89,2.21-2.01,3.83-3.46,4.62-4.43,5.28-3.26,6.22-2.33.92.91,2.17,1.55-2.65,6.17"/><path id="Tracé_40181" class="cls-6" d="m1141.71,388.21c-.35.89-.78,1.75-1.28,2.57-.33.56-.7,1.1-1.1,1.61l-.54.74-.66.79-.78.97-1.04,1.17c-.77.89-1.44,1.46-1.96,1.98-.55.48-1.01.84-1.46,1.22-.93.71-1.85,1.42-3.8,2.67-1.97,1.21-2.98,1.78-3.98,2.38-1.35.76-2.78,1.39-4.25,1.89-2.22.7-3.36.98-4.48,1.27l-1.84.39c-.71.11-1.56.27-2.71.39-.9.1-1.81.15-2.72.13-.62,0-1.24-.04-1.86-.11-1.14-.11-2.27-.23-4.52-.34-2.25-.11-3.37-.2-4.48-.28-1.49-.1-2.97-.27-4.44-.52-2.2-.36-3.3-.57-4.39-.77s-2.18-.41-4.34-.91c-2.16-.49-3.21-.82-4.27-1.15l-4.28-1.29-4.33-1.36c-1.47-.48-2.89-1.08-4.26-1.8-1.53-.81-2.23-1.57-2.45-2.22-.19-1.22.57-2.39,1.77-2.7.99.07,1.94.4,2.76.95,1.22.64,2.5,1.14,3.84,1.49,1.01.26,2.01.52,4.02,1.14,2.01.62,3.03.98,4.03,1.38,1.34.53,2.72.95,4.13,1.26l4.2.96c1.05.23,2.1.47,4.21.81,1.4.25,2.83.35,4.26.31,1.07-.02,2.13-.04,4.22.07,2.09.11,3.14.19,4.18.27.53.05,1.05.07,1.7.07.83,0,1.66-.04,2.48-.13,1.04-.11,1.81-.24,2.45-.32l1.66-.3c1.35-.27,2.68-.62,3.98-1.04,1.3-.44,2.57-.96,3.81-1.55.91-.48,1.84-.92,3.59-1.99,1.16-.72,2.23-1.57,3.19-2.54.35-.37.7-.73,1.15-1.17.4-.48.96-.99,1.61-1.74.33-.38.61-.7.86-1,.23-.31.43-.59.61-.83l.5-.69.38-.65c.24-.43.53-.83.78-1.39.36-.68.69-1.38.97-2.09.21-.51.47-1,.78-1.45.2-.28.49-.49.82-.6.62-.1,1.26-.04,1.84.2.62.06,1.19.34,1.63.77.21.33.3.71.27,1.1-.02.69-.19,1.36-.49,1.98"/><path id="Tracé_40182" class="cls-10" d="m942.29,348.87h0c-1.38.36-2.29.69-2.54-.41-.34-1.42-.57-1.38-.82-2.83-.19-1.47-.04-1.48-.15-2.95,0-.99.06-1.98.17-2.96,0-.99.04-1.99.14-2.98.28-1.48-.3-1.59.12-3.1.27-1.02.61-2.01,1.04-2.97.21-.49.45-.97.72-1.43.25-.48.52-.94.83-1.38.3-.45.65-.87,1.05-1.24.43-.33.83-.7,1.19-1.11.36-.41.79-.75,1.27-1,.36-.19.66-.46,1.34-.88,1.32-.87,1.03-1.37,2.51-2.06.47-.26,1-.42,1.53-.48.52-.07,1.04-.19,1.54-.35l1.53-.37c.51-.15,1.03-.24,1.56-.28,1.07-.06,2.14,0,3.2.18.54.01,1.07.13,1.56.35.49.2,1,.36,1.51.48,1.47.53,1.77-.21,3.22.54.49.22.96.5,1.37.84.32.25.64.49,1.29.93.78.69,1.51,1.43,2.18,2.22.7.73,1.34,1.51,1.94,2.33.88,1.2,1.37.86,2.18,2.14.14.22.24.39.34.55,0-.05,0-.08,0-.14,0-.99.04-1.99.14-2.97.28-1.48-.3-1.59.12-3.1.26-1.02.61-2.01,1.04-2.97.21-.49.45-.97.72-1.43.25-.48.53-.94.83-1.38.3-.45.65-.87,1.05-1.24.43-.33.83-.7,1.19-1.11.36-.41.79-.75,1.27-1,.37-.19.66-.46,1.34-.88,1.32-.87,1.03-1.37,2.51-2.06.47-.26,1-.42,1.53-.48.52-.07,1.04-.19,1.54-.36l1.53-.37c.51-.15,1.03-.24,1.56-.28,1.07-.06,2.14,0,3.2.18.54.01,1.07.13,1.56.35.49.2,1,.36,1.51.48,1.47.53,1.77-.21,3.22.54.49.22.96.5,1.37.84.32.25.64.49,1.29.93.78.69,1.51,1.43,2.18,2.22.7.73,1.34,1.51,1.94,2.33.88,1.2,1.37.86,2.18,2.14.54.84,1.03,1.72,1.46,2.62.68,1.33.63,1.35,1.24,2.71.49,1.4.57,1.38.98,2.8.43,1.43-.2,1.59.12,2.99.31,1.41.65,1.35.9,2.8.15,1.47.01,1.47.08,2.95.05.98.06,1.97,0,2.96.01,1-.03,2-.12,3-.18,1-.44,1.99-.77,2.96-.2.74-.29,1.11-.4,1.5-.12.51-.29,1.01-.51,1.49-.42.99-.93,1.93-1.54,2.82-.29.46-.61.9-.95,1.32-.32.44-.68.86-1.07,1.24-.82.71-1.72,1.34-2.67,1.87-1.35.9-1.56.48-2.96,1.17-.96.36-1.94.66-2.93.91-.75.15-1.13.2-1.51.25s-.74.13-1.52.17c-1.03.18-2.07.25-3.11.2-.53-.01-1.06-.06-1.58-.16-.39-.07-.79-.11-1.57-.29-1.03-.27-2.04-.63-3-1.09-.72-.34-1.1-.47-1.47-.64-.5-.2-.97-.46-1.41-.76-.86-.61-1.67-1.29-2.42-2.02-1.11-1.12-.58-1.56-1.53-2.71-.84-1.22-1.19-1-1.95-2.29-.07-.12-.13-.23-.18-.34,0,.17,0,.36-.01.58.01,1-.03,2-.12,3-.18,1-.44,1.99-.77,2.96-.2.74-.3,1.11-.4,1.5-.11.51-.28,1.01-.51,1.49-.42.99-.93,1.93-1.54,2.82-.29.46-.61.9-.95,1.32-.32.44-.68.86-1.07,1.24-.82.71-1.72,1.34-2.67,1.87-1.35.9-1.56.48-2.96,1.17-.96.35-1.94.66-2.93.91-.75.15-1.13.2-1.51.25s-.74.13-1.52.17c-1.03.18-2.07.25-3.11.2-.53-.01-1.05-.06-1.57-.16-.39-.07-.79-.11-1.57-.29-1.03-.27-2.04-.63-3-1.09-.72-.35-1.1-.47-1.47-.64-.5-.2-.97-.46-1.41-.76-.86-.61-1.67-1.29-2.42-2.02-1.11-1.12-.58-1.56-1.53-2.71-.84-1.22-1.19-1-1.95-2.29s-.42-1.47-1.05-2.78-.61-1.32-1.18-2.66c-.46-1.37-.64-1.32-1.03-2.71-.31-1.07.57-1.52,1.95-1.88"/><path id="Tracé_40183" class="cls-4" d="m995.69,333.99c-.09-.31-.09-.34-.16-.65-.09-.4-.34-.34-.41-.76s.05-.44,0-.86.12-.45.08-.87c-.02-.43-.12-.43-.12-.88.03-.46-.45-.47-.39-.97.04-.34.1-.68.19-1.01.1-.36.24-.72.4-1.06.24-.54.51-.43.81-.94.4-.5.56-.36,1.02-.78.47-.39.21-.77.8-1.11.61-.31.7-.07,1.28-.26.4-.14.81-.24,1.22-.29.65-.04.65.15,1.29.21.63.15.56.36,1.11.58.52.23.84-.27,1.36.07.48.35.4.44.79.81.37.38.2.52.51.9.16.27.31.54.44.83.24.38.65.16.88.56.2.41.18.41.37.82.16.4.17.4.32.81s.16.4.27.81-.42.55-.33.95.42.33.49.75-.11.45-.05.87.01.43.04.87c0,.44.15.44.13.89-.05.31-.12.62-.2.92-.06.47.07.5-.04.99-.07.36-.17.71-.3,1.05-.13.38-.29.75-.49,1.09-.4.52-.49.44-.98.89-.52.42-.7.2-1.24.5-.74.36-1.55.52-2.37.48-.41.07-.84.08-1.25.03-.41-.07-.8-.18-1.18-.34-.35-.14-.69-.32-1.01-.54-.45-.33-.59-.15-.99-.52-.34-.38-.44-.32-.73-.71s.16-.69-.08-1.07-.5-.23-.72-.63c-.19-.4.11-.53-.06-.92s-.2-.38-.33-.77-.24-.36-.35-.76"/><path id="Tracé_40184" class="cls-4" d="m974.68,338.21c-.07-.31-.09-.34-.18-.65-.11-.39.13-.46,0-.86s-.26-.36-.42-.75-.32-.33-.5-.72c-.2-.39-.1-.43-.33-.82-.25-.39.17-.63-.14-1.04-.2-.28-.42-.54-.66-.79-.27-.27-.55-.51-.86-.73-.47-.36-.65-.13-1.17-.42-.59-.24-.67-.04-1.27-.18-.6-.11-.56-.57-1.24-.58-.68.03-.65.28-1.25.4-.41.07-.82.19-1.21.35-.59.29-.49.45-1.02.82-.48.43-.32.59-.68,1.05-.34.46-.86.17-1.15.72-.13.36-.23.72-.29,1.1-.14.51.08.55,0,1.04-.01.31,0,.63.02.94-.03.45-.49.45-.49.92.02.45.04.45.08.89.06.43.04.44.12.86s.06.43.16.84.64.27.75.67-.2.49-.07.89.32.34.47.74.2.38.39.78c.21.39.08.45.32.85.25.39.34.33.63.71s.18.47.52.85c.4.36.31.42.77.77.58.63,1.39,1,2.25,1.01.66.12.71-.17,1.33-.17.41-.03.82-.1,1.21-.23.38-.13.75-.3,1.1-.51.39-.14.77-.34,1.11-.58.32-.26.61-.55.86-.88.24-.3.45-.62.62-.96.23-.5.44-.42.61-.94.12-.32.21-.65.29-.98.07-.49-.48-.53-.45-.97s.32-.45.32-.9c-.03-.44-.35-.41-.4-.83s-.02-.43-.09-.83.03-.43-.06-.83"/><path id="Tracé_40185" class="cls-10" d="m1257.34,260.47c.32-.33.57-.75.84-1.05.32-.34.89-.12,1.17-.42.31-.34.28-1.29.56-1.59.31-.33.58-.67.88-.97s.66-.48.98-.77c.3-.26.92.06,1.27-.21.31-.23.44-.86.8-1.1.32-.21.63-.48,1.01-.7.32-.2.56-.62.94-.83.33-.19.92.06,1.29-.15.34-.19.52-.72.89-.92.35-.19.65-.47,1.01-.66s.67-.43,1.03-.63.99.17,1.35-.03.58-.6.94-.8.59-.59.95-.78l1.05-.59c.35-.19.83-.15,1.19-.34s.81-.19,1.16-.39.4-.93.75-1.13.82-.17,1.17-.37.76-.29,1.11-.49.8-.21,1.15-.41.61-.56.95-.76.53-.69.88-.89l1.02-.65c.34-.2,1.04.2,1.39,0s.43-.87.77-1.07.94.02,1.29-.18.35-1,.69-1.2.65-.48.99-.69,1.05.19,1.39-.01l1.02-.65c.35-.2.54-.67.88-.88l1.01-.66c.34-.21.85-.15,1.19-.36s.4-.9.74-1.1,1.03.14,1.37-.07.3-1.05.64-1.26,1.15.32,1.49.11.56-.63.9-.84.54-.66.88-.87.97.03,1.31-.19.24-1.12.58-1.34.77-.29,1.1-.51.6-.56.93-.78,1.02.09,1.36-.12.58-.59.91-.81.59-.57.92-.79.96-.01,1.29-.23.27-1.06.6-1.27l.99-.69c.34-.22.84-.2,1.17-.42s.47-.76.8-.98.76-.32,1.09-.53,1.08.15,1.41-.07.37-.89.7-1.11c.3-.18.48-.65.88-.91.32-.21,1.05.12,1.42-.12.33-.22.64-.5.99-.74l1.03-.68c.34-.23.51-.7.85-.94s1.02.02,1.36-.22.48-.76.82-.99.43-.83.77-1.06.97-.07,1.31-.3c.35-.24.46-.79.79-1.02.36-.24.95-.14,1.27-.35.37-.24.36-.97.68-1.17.4-.25.96-.19,1.27-.36.39-.2.76-.34,1.07-.49.41-.2.97-.07,1.28-.2.43-.18.4-.83.76-.93.39-.1.93.05,1.4-.03.36-.06.55-.45,1.04-.54.36-.07,1.12.32,1.59.22.06-.01-.03.01.1.19.11.16.29.24.27.29-.21.44-.17,1.1-.33,1.44-.22.46-.63.56-.78.89-.21.45-.67.45-.87.78s.1,1.28-.2,1.64c-.21.26-.86.03-1.18.37l-.82.84c-.28.26-.51.63-.85.92-.3.26-.25,1.01-.58,1.28-.3.25-.91.12-1.24.39-.31.25-.47.73-.8.99s-.99.02-1.32.27-.5.69-.83.94-.83.25-1.16.5-.39.87-.71,1.12-.76.35-1.09.59-.39.88-.72,1.12-.76.35-1.09.59-.83.26-1.16.49-.49.74-.82.98-.89.16-1.22.4c-.34.24-.5.74-.83.97-.35.24-.6.6-.93.83-.35.25-.6.62-.92.84-.36.25-.85.26-1.16.48-.33.22-.56.61-.9.84s-.79.28-1.13.51-.97,0-1.31.23l-1.02.67c-.34.22-.45.79-.8,1.01s-.85.18-1.19.4-.6.56-.95.78-.71.39-1.05.61-.45.8-.79,1.02-.89.12-1.23.33-.62.54-.97.75-.46.8-.8,1.02-.85.17-1.2.38-.91.07-1.26.29-.66.47-1.01.68-.58.6-.93.82-.53.69-.88.9l-1.05.63c-.35.21-.77.3-1.11.51s-.59.6-.94.8-1.14-.32-1.49-.12-.63.54-.98.74-.43.87-.78,1.07-.73.37-1.08.57-.66.48-1.02.68-.62.56-.97.76-.95-.02-1.3.18-.45.85-.81,1.05-1.07-.25-1.43-.06-.65.5-1.01.69-.63.54-.99.73-.53.73-.88.93-1.02-.16-1.38.03-.63.54-.99.73-.48.83-.84,1.01-.92.01-1.28.2-.87.1-1.23.29-.84.15-1.2.33-.42.96-.78,1.14-.98-.12-1.35.05-.39,1.03-.75,1.2-.94-.03-1.3.14-.89.05-1.25.22c-.43.21-.6.79-.93.94-.44.21-1,.01-1.33.15-.44.17-.7.54-1.08.64s-.61.55-1.08.65c-.36.08-1.1-.51-1.59-.4-.37.08-.51.74-.98.86-.49.07-.98.11-1.48.1-.54-.02-1.07-.09-1.6-.2-.43,0-.95-.1-1.56-.11-.06,0,.04.26-.05.06-.08-.18-.07-.24-.03-.28-.05-.09-.1-.18-.17-.26"/><path id="Tracé_40186" class="cls-10" d="m1273.55,303.64c.31-.19.58-.49.85-.67.31-.2.67.22.94.04.3-.2.5-1.1.77-1.28.3-.19.58-.41.86-.58s.58-.21.89-.36c.28-.13.65.4.96.29.28-.1.52-.63.84-.72.28-.08.57-.2.9-.27.28-.06.56-.36.88-.41.29-.05.64.4.96.36.29-.04.55-.46.87-.5.3-.04.59-.17.89-.22s.59-.14.9-.18.67.54.97.5.57-.32.88-.36.58-.3.88-.33l.9-.12c.3-.04.63.2.93.16s.62.15.93.11.54-.68.84-.72.63.18.93.15.61.05.92.02.62.14.93.1.58-.26.89-.29.57-.4.87-.43.6-.12.9-.15.68.63.98.59.55-.6.85-.64.66.42.96.39.53-.74.83-.78.59-.15.9-.19.68.63.98.6l.9-.13c.3-.03.57-.36.88-.39s.6-.11.9-.14.64.24.94.21.55-.62.85-.65.68.59.98.56.53-.79.83-.82.7.81,1,.78.58-.3.88-.33.58-.34.88-.37.66.47.96.44.52-.87.82-.9.62.1.93.07.59-.21.89-.24.67.56.97.53.59-.24.89-.27.59-.22.89-.25.66.45.96.42.53-.79.83-.82l.9-.12c.31-.03.64.24.94.21s.57-.43.87-.45.63.1.93.08.69.66.98.64.55-.59.85-.61c.27,0,.55-.32.91-.34.29-.02.67.64,1.01.61.3-.02.6-.11.93-.14l.93-.07c.31-.02.58-.35.9-.38s.68.54.99.52.59-.4.9-.42.58-.49.89-.51.68.44.98.42c.32-.02.59-.43.9-.45.33-.02.68.38.98.37.33-.01.59-.63.88-.63.36,0,.71.35.98.37.33.03.63.11.89.15.35.05.67.46.92.52.35.08.57-.49.84-.37.29.12.6.54.94.73.26.14.53-.08.89.11.27.14.61.87.96,1.04.04.02-.02,0,0,.21.02.19.1.36.07.39-.3.25-.52.83-.75,1.03-.31.27-.62.14-.84.33-.31.26-.61.02-.85.19s-.4,1.13-.72,1.27c-.23.1-.58-.44-.91-.32l-.84.28c-.28.07-.56.27-.89.33-.29.06-.52.72-.84.78-.29.05-.65-.38-.96-.32-.29.05-.57.36-.88.41s-.66-.5-.97-.45-.57.33-.88.38-.64-.22-.94-.17-.56.54-.86.58-.62-.09-.93-.05-.56.56-.86.6-.63-.08-.93-.04-.64-.2-.94-.16-.58.39-.88.43-.65-.3-.95-.26-.58.39-.88.43c-.31.04-.6.22-.89.26-.32.04-.6.24-.89.28-.32.04-.66-.19-.94-.15-.3.03-.58.26-.88.3s-.62-.14-.92-.1-.66-.47-.96-.44l-.9.1c-.3.03-.56.47-.86.5s-.63-.24-.94-.21-.58.2-.89.24-.6.01-.91.04-.56.49-.86.53-.64-.31-.94-.28-.59.19-.89.22-.56.5-.86.53-.63-.25-.94-.21-.65-.35-.95-.32-.6.11-.9.15-.58.28-.88.31-.57.38-.87.41l-.9.09c-.3.03-.62-.07-.92-.04s-.58.27-.88.3-.69-.79-.99-.76-.59.21-.89.23-.55.59-.85.62-.61.01-.91.04-.59.15-.9.18-.58.24-.88.27-.65-.42-.95-.39-.55.58-.85.61-.68-.68-.98-.65-.59.18-.89.21-.59.23-.89.26-.56.45-.86.48-.67-.57-.97-.54-.58.23-.89.26-.55.56-.85.58-.65-.36-.95-.33-.64-.25-.94-.23-.63-.2-.93-.18-.54.72-.84.74-.66-.5-.96-.48-.53.8-.83.81-.65-.39-.95-.38-.64-.3-.94-.28c-.35.04-.61.5-.89.52-.36.02-.71-.36-.98-.37-.35,0-.62.23-.92.18s-.56.27-.93.19c-.28-.06-.66-.89-1.03-.96-.28-.05-.54.5-.9.44-.37-.12-.73-.27-1.08-.45-.39-.11-.74-.59-1.1-.78-.31-.16-.65-.44-1.09-.68-.04-.02-.03.25-.05.04-.02-.2,0-.25.04-.27-.01-.1-.03-.2-.06-.3"/><path id="Tracé_40187" class="cls-10" d="m1277.11,346.96c.33-.05.68-.21.97-.26.34-.06.45.46.75.41.33-.06.87-.79,1.17-.85.32-.06.64-.14.94-.18s.57.04.87.03c.28,0,.36.62.66.64.27.02.69-.36.99-.31.26.04.55.05.84.11.26.06.6-.1.89-.02.25.07.35.62.63.71.25.08.64-.2.92-.1.26.08.55.08.82.16s.54.11.81.2.31.75.58.84.6-.06.87.03.6-.04.86.05l.79.26c.26.08.43.43.69.52s.45.38.71.47.72-.4.99-.32.44.42.7.5.48.29.74.38.45.38.71.47.58,0,.85.09.63-.13.89-.05.54.13.8.22.29.84.55.93.7-.33.96-.24.36.65.62.74.75-.46,1.01-.37.55.1.81.19.29.84.55.93l.79.24c.26.09.62-.1.88,0s.54.14.8.23.42.48.68.57.71-.34.97-.25.3.8.56.89.76-.5,1.02-.41.23,1.02.48,1.11.6-.04.86.05.61-.08.87.02.34.69.6.78.79-.58,1.05-.49.46.34.72.44.57.04.83.14.31.77.57.87.58.01.84.11.57.04.83.13.35.67.6.77.77-.51,1.02-.41l.79.25c.26.1.42.47.68.57s.64-.16.9-.06.47.34.72.44.28.88.53.97.7-.31.95-.21c.22.1.58-.07.88.05.24.1.28.85.56.96.25.1.54.14.81.25l.79.31c.26.1.62-.08.89.02s.33.76.59.86.65-.13.91-.02.68-.21.94-.1.37.67.63.77.66-.15.92-.05c.27.11.4.62.64.73.28.12.74-.34.98-.22.29.14.43.6.64.72.26.16.46.36.66.49.26.18.35.68.53.84.25.21.67-.21.84,0,.19.23.26.73.46,1.03.15.23.46.14.68.45.16.23.13,1.03.35,1.33.03.04-.02-.01-.09.19-.07.18-.07.36-.11.38-.35.11-.77.55-1.04.63-.37.12-.56-.12-.82-.04-.36.12-.5-.23-.78-.17s-.8.86-1.12.86c-.23,0-.29-.63-.61-.66l-.8-.08c-.26-.05-.57.01-.86-.05-.26-.06-.73.44-1.01.37-.26-.07-.37-.6-.64-.67-.26-.07-.62.1-.89.02s-.33-.71-.6-.8-.61.07-.88-.01-.43-.45-.69-.53-.68.27-.95.18-.47-.33-.73-.42-.69.29-.95.2-.47-.32-.74-.41-.44-.43-.7-.52-.64.12-.9.04-.41-.54-.66-.62-.64.12-.9.04c-.27-.09-.58-.04-.84-.12-.28-.09-.59-.03-.84-.11-.28-.09-.45-.44-.7-.51s-.58,0-.84-.08-.45-.37-.71-.46-.34-.69-.6-.78l-.78-.27c-.26-.09-.65.2-.91.11s-.41-.47-.67-.56-.56-.05-.82-.14-.5-.23-.76-.32-.66.23-.92.13-.39-.54-.65-.63-.56-.06-.82-.16-.66.23-.92.14-.41-.48-.67-.57-.38-.58-.64-.67-.53-.14-.79-.23-.59.02-.85-.07-.62.12-.88.03l-.77-.28c-.26-.09-.47-.31-.73-.4s-.59.02-.85-.08-.23-.99-.49-1.08-.56-.05-.82-.14-.69.32-.95.22-.5-.23-.76-.33-.55-.1-.8-.2-.58-.02-.83-.11-.35-.64-.61-.74-.69.31-.95.21-.27-.89-.52-.98-.56-.07-.81-.17-.57-.03-.83-.12-.65.18-.9.08-.31-.78-.56-.88-.58-.02-.83-.12-.69.29-.94.19-.38-.58-.63-.68-.41-.48-.67-.58-.43-.43-.68-.54-.74.43-.99.33-.33-.72-.58-.82-.77.51-1.02.41-.37-.62-.62-.72-.4-.53-.65-.63c-.3-.11-.71.2-.94.11-.31-.12-.43-.61-.64-.73-.29-.15-.61-.04-.83-.2s-.57.02-.83-.2c-.2-.17-.16-1.07-.44-1.29-.21-.16-.65.23-.92.04-.32-.23-.48-.64-.69-.84-.27-.26-.35-.83-.57-1.14-.18-.27-.35-.66-.6-1.05-.03-.04-.13.22-.06.01.07-.18.11-.22.15-.22.03-.1.06-.2.08-.3"/></g></g></g></g></g></g></svg>